<mxfile host="app.diagrams.net" agent="Mozilla/5.0 (Macintosh; Intel Mac OS X 10_15_7) AppleWebKit/537.36 (KHTML, like Gecko) Chrome/128.0.0.0 YaBrowser/24.10.0.0 Safari/537.36" modified="2024-11-20T12:02:45.444Z" version="24.4.14" etag="54ZqJ9i3LdVch8EJdY1e" type="device">
  <diagram id="C5RBs43oDa-KdzZeNtuy" name="Page-1">
    <mxGraphModel dx="1194" dy="801" grid="1" gridSize="10" guides="1" tooltips="1" connect="1" arrows="1" fold="1" page="1" pageScale="1" pageWidth="827" pageHeight="1169" math="0" shadow="0">
      <root>
        <mxCell id="WIyWlLk6GJQsqaUBKTNV-0" />
        <mxCell id="WIyWlLk6GJQsqaUBKTNV-1" parent="WIyWlLk6GJQsqaUBKTNV-0" />
        <mxCell id="87oQixrqxzZaD52npn5Q-0" value="" style="edgeStyle=orthogonalEdgeStyle;rounded=0;orthogonalLoop=1;jettySize=auto;html=1;" edge="1" parent="WIyWlLk6GJQsqaUBKTNV-1" source="lnfCwj8_V-FU4pzsITdw-0" target="lnfCwj8_V-FU4pzsITdw-4">
          <mxGeometry relative="1" as="geometry" />
        </mxCell>
        <mxCell id="lnfCwj8_V-FU4pzsITdw-0" value="Начало" style="strokeWidth=2;html=1;shape=mxgraph.flowchart.terminator;whiteSpace=wrap;" parent="WIyWlLk6GJQsqaUBKTNV-1" vertex="1">
          <mxGeometry x="282.5" y="120" width="90" height="40" as="geometry" />
        </mxCell>
        <mxCell id="87oQixrqxzZaD52npn5Q-6" value="" style="edgeStyle=orthogonalEdgeStyle;rounded=0;orthogonalLoop=1;jettySize=auto;html=1;" edge="1" parent="WIyWlLk6GJQsqaUBKTNV-1" source="lnfCwj8_V-FU4pzsITdw-2" target="lnfCwj8_V-FU4pzsITdw-6">
          <mxGeometry relative="1" as="geometry" />
        </mxCell>
        <mxCell id="lnfCwj8_V-FU4pzsITdw-2" value="Ввод массивов&lt;br&gt;&amp;nbsp;&amp;nbsp;&lt;span class=&quot;katex&quot;&gt;&lt;span class=&quot;katex-mathml&quot;&gt;&lt;math xmlns=&quot;http://www.w3.org/1998/Math/MathML&quot;&gt;&lt;mrow&gt;&lt;mi&gt;A&lt;/mi&gt;&lt;/mrow&gt;A&lt;/math&gt;&lt;/span&gt;&lt;/span&gt;&amp;nbsp;и &lt;span class=&quot;katex&quot;&gt;&lt;span class=&quot;katex-mathml&quot;&gt;&lt;math xmlns=&quot;http://www.w3.org/1998/Math/MathML&quot;&gt;&lt;mrow&gt;&lt;mi&gt;B&lt;/mi&gt;&lt;/mrow&gt;B&lt;/math&gt;&lt;/span&gt;&lt;br&gt;&lt;/span&gt;" style="shape=parallelogram;perimeter=parallelogramPerimeter;whiteSpace=wrap;html=1;fixedSize=1;" parent="WIyWlLk6GJQsqaUBKTNV-1" vertex="1">
          <mxGeometry x="265" y="270" width="125" height="50" as="geometry" />
        </mxCell>
        <mxCell id="87oQixrqxzZaD52npn5Q-5" style="edgeStyle=orthogonalEdgeStyle;rounded=0;orthogonalLoop=1;jettySize=auto;html=1;entryX=0.5;entryY=0;entryDx=0;entryDy=0;" edge="1" parent="WIyWlLk6GJQsqaUBKTNV-1" source="lnfCwj8_V-FU4pzsITdw-4" target="lnfCwj8_V-FU4pzsITdw-2">
          <mxGeometry relative="1" as="geometry" />
        </mxCell>
        <mxCell id="lnfCwj8_V-FU4pzsITdw-4" value="Установка сегментных регистров (DS)" style="rounded=0;whiteSpace=wrap;html=1;" parent="WIyWlLk6GJQsqaUBKTNV-1" vertex="1">
          <mxGeometry x="267.5" y="180" width="120" height="60" as="geometry" />
        </mxCell>
        <mxCell id="87oQixrqxzZaD52npn5Q-8" value="" style="edgeStyle=orthogonalEdgeStyle;rounded=0;orthogonalLoop=1;jettySize=auto;html=1;" edge="1" parent="WIyWlLk6GJQsqaUBKTNV-1" source="lnfCwj8_V-FU4pzsITdw-6" target="87oQixrqxzZaD52npn5Q-7">
          <mxGeometry relative="1" as="geometry" />
        </mxCell>
        <mxCell id="lnfCwj8_V-FU4pzsITdw-6" value="Процедура&amp;nbsp;&lt;code&gt;ReadArray&lt;/code&gt; для считывания элементов массива &lt;span class=&quot;katex&quot;&gt;&lt;span class=&quot;katex-mathml&quot;&gt;&lt;math xmlns=&quot;http://www.w3.org/1998/Math/MathML&quot;&gt;&lt;mrow&gt;&lt;mi&gt;А;&lt;/mi&gt;&lt;/mrow&gt;A&lt;/math&gt;&lt;/span&gt;&lt;br&gt;&lt;/span&gt;&lt;div&gt;&lt;span class=&quot;katex&quot;&gt;сохранение его длинны&lt;/span&gt;&lt;/div&gt;" style="rounded=0;whiteSpace=wrap;html=1;" parent="WIyWlLk6GJQsqaUBKTNV-1" vertex="1">
          <mxGeometry x="252.5" y="350" width="150" height="70" as="geometry" />
        </mxCell>
        <mxCell id="lnfCwj8_V-FU4pzsITdw-12" value="да" style="edgeStyle=orthogonalEdgeStyle;rounded=0;orthogonalLoop=1;jettySize=auto;html=1;exitX=0.5;exitY=1;exitDx=0;exitDy=0;entryX=0.5;entryY=0;entryDx=0;entryDy=0;" parent="WIyWlLk6GJQsqaUBKTNV-1" source="lnfCwj8_V-FU4pzsITdw-10" target="lnfCwj8_V-FU4pzsITdw-11" edge="1">
          <mxGeometry x="-0.3333" y="13" relative="1" as="geometry">
            <mxPoint as="offset" />
          </mxGeometry>
        </mxCell>
        <mxCell id="87oQixrqxzZaD52npn5Q-11" style="edgeStyle=orthogonalEdgeStyle;rounded=0;orthogonalLoop=1;jettySize=auto;html=1;exitX=1;exitY=0.5;exitDx=0;exitDy=0;entryX=0.5;entryY=0;entryDx=0;entryDy=0;" edge="1" parent="WIyWlLk6GJQsqaUBKTNV-1" source="lnfCwj8_V-FU4pzsITdw-10" target="87oQixrqxzZaD52npn5Q-10">
          <mxGeometry relative="1" as="geometry" />
        </mxCell>
        <mxCell id="lnfCwj8_V-FU4pzsITdw-10" value="A[i] = 0?" style="rhombus;whiteSpace=wrap;html=1;" parent="WIyWlLk6GJQsqaUBKTNV-1" vertex="1">
          <mxGeometry x="287.5" y="650" width="80" height="80" as="geometry" />
        </mxCell>
        <mxCell id="lnfCwj8_V-FU4pzsITdw-21" style="edgeStyle=orthogonalEdgeStyle;rounded=0;orthogonalLoop=1;jettySize=auto;html=1;exitX=0.5;exitY=1;exitDx=0;exitDy=0;entryX=0.5;entryY=0;entryDx=0;entryDy=0;" parent="WIyWlLk6GJQsqaUBKTNV-1" source="lnfCwj8_V-FU4pzsITdw-11" target="lnfCwj8_V-FU4pzsITdw-13" edge="1">
          <mxGeometry relative="1" as="geometry" />
        </mxCell>
        <mxCell id="lnfCwj8_V-FU4pzsITdw-11" value="C[i][j] = 1" style="rounded=0;whiteSpace=wrap;html=1;" parent="WIyWlLk6GJQsqaUBKTNV-1" vertex="1">
          <mxGeometry x="282.5" y="760" width="90" height="40" as="geometry" />
        </mxCell>
        <mxCell id="lnfCwj8_V-FU4pzsITdw-22" style="edgeStyle=orthogonalEdgeStyle;rounded=0;orthogonalLoop=1;jettySize=auto;html=1;exitX=0.5;exitY=1;exitDx=0;exitDy=0;entryX=0.5;entryY=0;entryDx=0;entryDy=0;" parent="WIyWlLk6GJQsqaUBKTNV-1" source="lnfCwj8_V-FU4pzsITdw-13" target="lnfCwj8_V-FU4pzsITdw-18" edge="1">
          <mxGeometry relative="1" as="geometry" />
        </mxCell>
        <mxCell id="lnfCwj8_V-FU4pzsITdw-13" value="Переходим к следующему элементу&lt;br&gt;в B (j = j + 1)" style="rounded=0;whiteSpace=wrap;html=1;" parent="WIyWlLk6GJQsqaUBKTNV-1" vertex="1">
          <mxGeometry x="257.5" y="860" width="140" height="60" as="geometry" />
        </mxCell>
        <mxCell id="lnfCwj8_V-FU4pzsITdw-28" style="edgeStyle=orthogonalEdgeStyle;rounded=0;orthogonalLoop=1;jettySize=auto;html=1;exitX=0;exitY=0.5;exitDx=0;exitDy=0;entryX=0.5;entryY=0;entryDx=0;entryDy=0;" parent="WIyWlLk6GJQsqaUBKTNV-1" source="lnfCwj8_V-FU4pzsITdw-17" target="lnfCwj8_V-FU4pzsITdw-10" edge="1">
          <mxGeometry relative="1" as="geometry">
            <mxPoint x="180" y="610" as="targetPoint" />
            <Array as="points">
              <mxPoint x="200" y="1205" />
              <mxPoint x="200" y="540" />
              <mxPoint x="328" y="540" />
            </Array>
          </mxGeometry>
        </mxCell>
        <mxCell id="lnfCwj8_V-FU4pzsITdw-30" value="нет" style="edgeLabel;html=1;align=center;verticalAlign=middle;resizable=0;points=[];" parent="lnfCwj8_V-FU4pzsITdw-28" vertex="1" connectable="0">
          <mxGeometry x="-0.92" y="-3" relative="1" as="geometry">
            <mxPoint x="23" y="-12" as="offset" />
          </mxGeometry>
        </mxCell>
        <mxCell id="lnfCwj8_V-FU4pzsITdw-32" style="edgeStyle=orthogonalEdgeStyle;rounded=0;orthogonalLoop=1;jettySize=auto;html=1;exitX=0.5;exitY=1;exitDx=0;exitDy=0;" parent="WIyWlLk6GJQsqaUBKTNV-1" source="lnfCwj8_V-FU4pzsITdw-17" target="lnfCwj8_V-FU4pzsITdw-31" edge="1">
          <mxGeometry relative="1" as="geometry" />
        </mxCell>
        <mxCell id="lnfCwj8_V-FU4pzsITdw-33" value="да" style="edgeLabel;html=1;align=center;verticalAlign=middle;resizable=0;points=[];" parent="lnfCwj8_V-FU4pzsITdw-32" vertex="1" connectable="0">
          <mxGeometry x="0.56" relative="1" as="geometry">
            <mxPoint x="13" y="-9" as="offset" />
          </mxGeometry>
        </mxCell>
        <mxCell id="lnfCwj8_V-FU4pzsITdw-17" value="i = длине&lt;br&gt;массива A?" style="rhombus;whiteSpace=wrap;html=1;" parent="WIyWlLk6GJQsqaUBKTNV-1" vertex="1">
          <mxGeometry x="262.5" y="1170" width="130" height="70" as="geometry" />
        </mxCell>
        <mxCell id="lnfCwj8_V-FU4pzsITdw-25" value="да" style="edgeStyle=orthogonalEdgeStyle;rounded=0;orthogonalLoop=1;jettySize=auto;html=1;exitX=0.5;exitY=1;exitDx=0;exitDy=0;entryX=0.5;entryY=0;entryDx=0;entryDy=0;" parent="WIyWlLk6GJQsqaUBKTNV-1" source="lnfCwj8_V-FU4pzsITdw-18" target="lnfCwj8_V-FU4pzsITdw-23" edge="1">
          <mxGeometry x="-0.5" y="13" relative="1" as="geometry">
            <mxPoint as="offset" />
          </mxGeometry>
        </mxCell>
        <mxCell id="lnfCwj8_V-FU4pzsITdw-27" style="edgeStyle=orthogonalEdgeStyle;rounded=0;orthogonalLoop=1;jettySize=auto;html=1;exitX=0;exitY=0.5;exitDx=0;exitDy=0;entryX=0.5;entryY=0;entryDx=0;entryDy=0;" parent="WIyWlLk6GJQsqaUBKTNV-1" source="lnfCwj8_V-FU4pzsITdw-18" target="lnfCwj8_V-FU4pzsITdw-10" edge="1">
          <mxGeometry relative="1" as="geometry">
            <mxPoint x="170" y="700" as="targetPoint" />
            <Array as="points">
              <mxPoint x="230" y="995" />
              <mxPoint x="230" y="560" />
              <mxPoint x="328" y="560" />
            </Array>
          </mxGeometry>
        </mxCell>
        <mxCell id="lnfCwj8_V-FU4pzsITdw-29" value="нет" style="edgeLabel;html=1;align=center;verticalAlign=middle;resizable=0;points=[];" parent="lnfCwj8_V-FU4pzsITdw-27" vertex="1" connectable="0">
          <mxGeometry x="-0.8384" y="2" relative="1" as="geometry">
            <mxPoint x="17" y="36" as="offset" />
          </mxGeometry>
        </mxCell>
        <mxCell id="lnfCwj8_V-FU4pzsITdw-18" value="j = длине&lt;br&gt;массива B?" style="rhombus;whiteSpace=wrap;html=1;" parent="WIyWlLk6GJQsqaUBKTNV-1" vertex="1">
          <mxGeometry x="262.5" y="960" width="130" height="70" as="geometry" />
        </mxCell>
        <mxCell id="lnfCwj8_V-FU4pzsITdw-26" style="edgeStyle=orthogonalEdgeStyle;rounded=0;orthogonalLoop=1;jettySize=auto;html=1;exitX=0.5;exitY=1;exitDx=0;exitDy=0;entryX=0.5;entryY=0;entryDx=0;entryDy=0;" parent="WIyWlLk6GJQsqaUBKTNV-1" source="lnfCwj8_V-FU4pzsITdw-23" target="lnfCwj8_V-FU4pzsITdw-17" edge="1">
          <mxGeometry relative="1" as="geometry" />
        </mxCell>
        <mxCell id="lnfCwj8_V-FU4pzsITdw-23" value="Переходим к следующему элементу&lt;br&gt;в A (i = i + 1)" style="rounded=0;whiteSpace=wrap;html=1;" parent="WIyWlLk6GJQsqaUBKTNV-1" vertex="1">
          <mxGeometry x="257.5" y="1070" width="140" height="60" as="geometry" />
        </mxCell>
        <mxCell id="lnfCwj8_V-FU4pzsITdw-31" value="1" style="ellipse;whiteSpace=wrap;html=1;aspect=fixed;" parent="WIyWlLk6GJQsqaUBKTNV-1" vertex="1">
          <mxGeometry x="312.5" y="1270" width="30" height="30" as="geometry" />
        </mxCell>
        <mxCell id="87oQixrqxzZaD52npn5Q-21" value="" style="edgeStyle=orthogonalEdgeStyle;rounded=0;orthogonalLoop=1;jettySize=auto;html=1;" edge="1" parent="WIyWlLk6GJQsqaUBKTNV-1" source="87oQixrqxzZaD52npn5Q-7" target="87oQixrqxzZaD52npn5Q-19">
          <mxGeometry relative="1" as="geometry" />
        </mxCell>
        <mxCell id="87oQixrqxzZaD52npn5Q-7" value="Процедура&amp;nbsp;&lt;code&gt;ReadArray&lt;/code&gt; для считывания элементов массива &lt;span class=&quot;katex&quot;&gt;&lt;span class=&quot;katex-mathml&quot;&gt;&lt;math xmlns=&quot;http://www.w3.org/1998/Math/MathML&quot;&gt;&lt;mrow&gt;&lt;mi&gt;B;&lt;/mi&gt;&lt;/mrow&gt;A&lt;/math&gt;&lt;/span&gt;&lt;br&gt;&lt;/span&gt;&lt;div&gt;&lt;span class=&quot;katex&quot;&gt;сохранение его длинны&lt;/span&gt;&lt;/div&gt;" style="rounded=0;whiteSpace=wrap;html=1;" vertex="1" parent="WIyWlLk6GJQsqaUBKTNV-1">
          <mxGeometry x="252.5" y="440" width="150" height="70" as="geometry" />
        </mxCell>
        <mxCell id="87oQixrqxzZaD52npn5Q-12" style="edgeStyle=orthogonalEdgeStyle;rounded=0;orthogonalLoop=1;jettySize=auto;html=1;entryX=0.5;entryY=0;entryDx=0;entryDy=0;" edge="1" parent="WIyWlLk6GJQsqaUBKTNV-1" source="87oQixrqxzZaD52npn5Q-10" target="lnfCwj8_V-FU4pzsITdw-13">
          <mxGeometry relative="1" as="geometry">
            <Array as="points">
              <mxPoint x="448" y="830" />
              <mxPoint x="328" y="830" />
            </Array>
          </mxGeometry>
        </mxCell>
        <mxCell id="87oQixrqxzZaD52npn5Q-10" value="C[i][j] = A[i] * A[j]" style="rounded=0;whiteSpace=wrap;html=1;" vertex="1" parent="WIyWlLk6GJQsqaUBKTNV-1">
          <mxGeometry x="402.5" y="760" width="90" height="40" as="geometry" />
        </mxCell>
        <mxCell id="87oQixrqxzZaD52npn5Q-13" value="нет" style="text;html=1;align=center;verticalAlign=middle;resizable=0;points=[];autosize=1;strokeColor=none;fillColor=none;" vertex="1" parent="WIyWlLk6GJQsqaUBKTNV-1">
          <mxGeometry x="350" y="658" width="40" height="30" as="geometry" />
        </mxCell>
        <mxCell id="87oQixrqxzZaD52npn5Q-16" value="" style="edgeStyle=orthogonalEdgeStyle;rounded=0;orthogonalLoop=1;jettySize=auto;html=1;" edge="1" parent="WIyWlLk6GJQsqaUBKTNV-1" source="87oQixrqxzZaD52npn5Q-14" target="87oQixrqxzZaD52npn5Q-15">
          <mxGeometry relative="1" as="geometry" />
        </mxCell>
        <mxCell id="87oQixrqxzZaD52npn5Q-14" value="1" style="ellipse;whiteSpace=wrap;html=1;aspect=fixed;" vertex="1" parent="WIyWlLk6GJQsqaUBKTNV-1">
          <mxGeometry x="680" y="130" width="30" height="30" as="geometry" />
        </mxCell>
        <mxCell id="87oQixrqxzZaD52npn5Q-18" value="" style="edgeStyle=orthogonalEdgeStyle;rounded=0;orthogonalLoop=1;jettySize=auto;html=1;" edge="1" parent="WIyWlLk6GJQsqaUBKTNV-1" source="87oQixrqxzZaD52npn5Q-15" target="87oQixrqxzZaD52npn5Q-17">
          <mxGeometry relative="1" as="geometry" />
        </mxCell>
        <mxCell id="87oQixrqxzZaD52npn5Q-15" value="Вывод C[i][j]" style="shape=parallelogram;perimeter=parallelogramPerimeter;whiteSpace=wrap;html=1;fixedSize=1;" vertex="1" parent="WIyWlLk6GJQsqaUBKTNV-1">
          <mxGeometry x="635" y="225" width="120" height="60" as="geometry" />
        </mxCell>
        <mxCell id="87oQixrqxzZaD52npn5Q-23" value="" style="edgeStyle=orthogonalEdgeStyle;rounded=0;orthogonalLoop=1;jettySize=auto;html=1;" edge="1" parent="WIyWlLk6GJQsqaUBKTNV-1" source="87oQixrqxzZaD52npn5Q-17" target="87oQixrqxzZaD52npn5Q-22">
          <mxGeometry relative="1" as="geometry" />
        </mxCell>
        <mxCell id="87oQixrqxzZaD52npn5Q-17" value="Переходим и выводим следующий элемент в строке (j = j + 1)" style="whiteSpace=wrap;html=1;" vertex="1" parent="WIyWlLk6GJQsqaUBKTNV-1">
          <mxGeometry x="627.5" y="320" width="135" height="65" as="geometry" />
        </mxCell>
        <mxCell id="87oQixrqxzZaD52npn5Q-19" value="Ввод C[i][j]" style="shape=parallelogram;perimeter=parallelogramPerimeter;whiteSpace=wrap;html=1;fixedSize=1;" vertex="1" parent="WIyWlLk6GJQsqaUBKTNV-1">
          <mxGeometry x="268.75" y="580" width="117.5" height="45" as="geometry" />
        </mxCell>
        <mxCell id="87oQixrqxzZaD52npn5Q-25" value="" style="edgeStyle=orthogonalEdgeStyle;rounded=0;orthogonalLoop=1;jettySize=auto;html=1;" edge="1" parent="WIyWlLk6GJQsqaUBKTNV-1" source="87oQixrqxzZaD52npn5Q-22" target="87oQixrqxzZaD52npn5Q-24">
          <mxGeometry relative="1" as="geometry" />
        </mxCell>
        <mxCell id="87oQixrqxzZaD52npn5Q-33" style="edgeStyle=orthogonalEdgeStyle;rounded=0;orthogonalLoop=1;jettySize=auto;html=1;entryX=0.5;entryY=0;entryDx=0;entryDy=0;" edge="1" parent="WIyWlLk6GJQsqaUBKTNV-1" source="87oQixrqxzZaD52npn5Q-22" target="87oQixrqxzZaD52npn5Q-15">
          <mxGeometry relative="1" as="geometry">
            <mxPoint x="690" y="200" as="targetPoint" />
            <Array as="points">
              <mxPoint x="590" y="456" />
              <mxPoint x="590" y="200" />
              <mxPoint x="695" y="200" />
            </Array>
          </mxGeometry>
        </mxCell>
        <mxCell id="87oQixrqxzZaD52npn5Q-22" value="j = кол-ву&lt;div&gt;столбцов?&lt;/div&gt;" style="rhombus;whiteSpace=wrap;html=1;" vertex="1" parent="WIyWlLk6GJQsqaUBKTNV-1">
          <mxGeometry x="637.5" y="420" width="115" height="72.5" as="geometry" />
        </mxCell>
        <mxCell id="87oQixrqxzZaD52npn5Q-27" value="" style="edgeStyle=orthogonalEdgeStyle;rounded=0;orthogonalLoop=1;jettySize=auto;html=1;" edge="1" parent="WIyWlLk6GJQsqaUBKTNV-1" source="87oQixrqxzZaD52npn5Q-24" target="87oQixrqxzZaD52npn5Q-26">
          <mxGeometry relative="1" as="geometry" />
        </mxCell>
        <mxCell id="87oQixrqxzZaD52npn5Q-24" value="переходим к следующей строчке (i = i +1)" style="whiteSpace=wrap;html=1;" vertex="1" parent="WIyWlLk6GJQsqaUBKTNV-1">
          <mxGeometry x="635" y="520" width="120" height="60" as="geometry" />
        </mxCell>
        <mxCell id="87oQixrqxzZaD52npn5Q-29" value="" style="edgeStyle=orthogonalEdgeStyle;rounded=0;orthogonalLoop=1;jettySize=auto;html=1;" edge="1" parent="WIyWlLk6GJQsqaUBKTNV-1" source="87oQixrqxzZaD52npn5Q-26" target="87oQixrqxzZaD52npn5Q-28">
          <mxGeometry relative="1" as="geometry" />
        </mxCell>
        <mxCell id="87oQixrqxzZaD52npn5Q-34" style="edgeStyle=orthogonalEdgeStyle;rounded=0;orthogonalLoop=1;jettySize=auto;html=1;entryX=0.5;entryY=0;entryDx=0;entryDy=0;" edge="1" parent="WIyWlLk6GJQsqaUBKTNV-1" source="87oQixrqxzZaD52npn5Q-26" target="87oQixrqxzZaD52npn5Q-15">
          <mxGeometry relative="1" as="geometry">
            <mxPoint x="695" y="180" as="targetPoint" />
            <Array as="points">
              <mxPoint x="540" y="652" />
              <mxPoint x="540" y="180" />
              <mxPoint x="695" y="180" />
            </Array>
          </mxGeometry>
        </mxCell>
        <mxCell id="87oQixrqxzZaD52npn5Q-26" value="i = кол-ву&amp;nbsp;&lt;div&gt;строк?&lt;/div&gt;" style="rhombus;whiteSpace=wrap;html=1;" vertex="1" parent="WIyWlLk6GJQsqaUBKTNV-1">
          <mxGeometry x="636.25" y="616" width="117.5" height="72" as="geometry" />
        </mxCell>
        <mxCell id="87oQixrqxzZaD52npn5Q-28" value="Конец" style="strokeWidth=2;html=1;shape=mxgraph.flowchart.terminator;whiteSpace=wrap;" vertex="1" parent="WIyWlLk6GJQsqaUBKTNV-1">
          <mxGeometry x="650" y="710" width="90" height="40" as="geometry" />
        </mxCell>
        <mxCell id="87oQixrqxzZaD52npn5Q-35" value="да" style="text;html=1;align=center;verticalAlign=middle;resizable=0;points=[];autosize=1;strokeColor=none;fillColor=none;" vertex="1" parent="WIyWlLk6GJQsqaUBKTNV-1">
          <mxGeometry x="700" y="478" width="40" height="30" as="geometry" />
        </mxCell>
        <mxCell id="87oQixrqxzZaD52npn5Q-36" value="нет" style="text;html=1;align=center;verticalAlign=middle;resizable=0;points=[];autosize=1;strokeColor=none;fillColor=none;" vertex="1" parent="WIyWlLk6GJQsqaUBKTNV-1">
          <mxGeometry x="610" y="428" width="40" height="30" as="geometry" />
        </mxCell>
        <mxCell id="87oQixrqxzZaD52npn5Q-37" value="нет" style="text;html=1;align=center;verticalAlign=middle;resizable=0;points=[];autosize=1;strokeColor=none;fillColor=none;" vertex="1" parent="WIyWlLk6GJQsqaUBKTNV-1">
          <mxGeometry x="610" y="620" width="40" height="30" as="geometry" />
        </mxCell>
        <mxCell id="87oQixrqxzZaD52npn5Q-38" value="да" style="text;html=1;align=center;verticalAlign=middle;resizable=0;points=[];autosize=1;strokeColor=none;fillColor=none;" vertex="1" parent="WIyWlLk6GJQsqaUBKTNV-1">
          <mxGeometry x="700" y="668" width="40" height="30" as="geometry" />
        </mxCell>
      </root>
    </mxGraphModel>
  </diagram>
</mxfile>
